<?xml version="1.0" standalone="no"?>
<!DOCTYPE svg PUBLIC "-//W3C//DTD SVG 20010904//EN"
 "http://www.w3.org/TR/2001/REC-SVG-20010904/DTD/svg10.dtd">
<svg version="1.0" xmlns="http://www.w3.org/2000/svg"
 width="900.000000pt" height="300.000000pt" viewBox="0 0 913.000000 300.000000"
 preserveAspectRatio="xMidYMid meet">

<g transform="translate(0.000000,273.000000) scale(0.100000,-0.100000)"
fill="#fff" stroke="none">
<path d="M6003 2227 l-113 -72 0 -497 0 -497 -68 6 c-51 4 -88 0 -150 -15
-177 -45 -305 -165 -328 -309 -14 -88 51 -191 152 -241 197 -99 499 -1 594
191 l30 62 -2 722 -3 722 -112 -72z"/>
<path d="M1745 2038 c-132 -83 -275 -170 -318 -195 l-78 -45 -67 15 c-37 9
-137 32 -222 52 -85 19 -186 42 -225 51 -38 8 -78 17 -87 20 -17 5 -18 -28
-18 -588 l0 -594 -65 4 c-169 11 -350 -97 -390 -232 -25 -83 -4 -149 65 -208
79 -68 222 -88 341 -48 74 25 101 41 157 94 87 82 82 42 89 691 6 519 8 575
22 570 28 -8 385 -87 401 -87 8 -1 109 58 224 130 115 73 210 132 212 132 2 0
4 -187 4 -416 l0 -416 -37 4 c-150 19 -337 -72 -399 -194 -94 -185 97 -356
342 -305 95 20 160 54 215 114 84 90 80 42 77 870 l-3 732 -240 -151z"/>
<path d="M3643 1533 c-38 -8 -66 -52 -60 -97 7 -52 26 -68 84 -73 42 -4 54 -1
78 20 37 31 42 95 10 126 -21 21 -75 32 -112 24z"/>
<path d="M3063 1266 c-98 -32 -138 -89 -131 -191 6 -95 31 -122 181 -194 67
-32 128 -65 135 -74 21 -24 11 -70 -18 -85 -34 -18 -158 -9 -234 18 -33 11
-61 20 -63 20 -1 0 -3 -33 -3 -74 l0 -73 48 -14 c72 -21 275 -19 334 4 117 45
164 192 94 297 -22 34 -46 50 -154 101 -70 34 -130 66 -134 73 -14 21 -8 55
11 66 33 17 117 11 184 -13 l65 -24 20 51 c32 78 32 77 -23 99 -65 26 -250 33
-312 13z"/>
<path d="M4127 1263 c-57 -19 -131 -82 -156 -132 -49 -98 -55 -288 -11 -388
25 -58 82 -116 139 -141 56 -26 253 -24 306 3 l40 20 3 77 3 77 -58 -26 c-75
-35 -168 -38 -210 -7 -54 40 -68 79 -68 184 0 102 11 134 59 179 36 34 104 38
180 12 33 -12 60 -20 62 -19 1 2 14 33 27 70 l26 66 -42 18 c-60 25 -236 29
-300 7z"/>
<path d="M4712 1256 c-41 -13 -76 -26 -78 -29 -8 -8 49 -117 61 -117 6 0 36 9
68 20 125 44 212 18 224 -67 5 -41 5 -42 -28 -47 -19 -3 -72 -7 -119 -10 -98
-6 -144 -17 -190 -49 -57 -38 -74 -70 -78 -146 -9 -151 61 -230 203 -231 85 0
131 16 180 61 23 21 45 39 48 39 3 0 13 -20 23 -45 l17 -46 61 3 61 3 0 260
c0 258 0 261 -25 309 -19 37 -38 56 -80 80 -51 29 -63 31 -165 34 -94 2 -121
-1 -183 -22z m278 -394 c0 -91 -59 -152 -148 -152 -74 0 -115 68 -80 133 24
46 70 65 166 66 l62 1 0 -48z"/>
<path d="M6486 1260 c-64 -25 -129 -89 -157 -154 -17 -38 -24 -76 -27 -152 -7
-178 37 -270 162 -334 68 -34 71 -35 190 -35 91 0 134 5 174 18 l52 19 0 69
c0 38 -1 69 -3 69 -1 0 -30 -10 -62 -21 -42 -16 -85 -22 -145 -23 -75 -1 -89
2 -119 23 -35 25 -70 90 -71 129 l0 22 220 0 220 0 0 65 c0 144 -44 234 -140
289 -49 27 -65 31 -150 33 -76 3 -105 -1 -144 -17z m210 -126 c25 -17 54 -71
54 -103 0 -20 -5 -21 -135 -21 l-135 0 6 28 c9 37 29 76 48 91 39 32 116 35
162 5z"/>
<path d="M7342 1260 c-23 -10 -56 -34 -72 -51 l-29 -33 -9 25 c-5 13 -11 33
-13 44 -4 17 -13 20 -72 23 l-67 3 0 -331 c0 -181 -1 -333 -2 -337 -2 -5 36
-9 83 -11 l86 -3 5 213 c4 188 7 219 25 260 45 100 169 107 209 12 11 -25 14
-89 14 -259 l0 -225 90 0 90 0 0 201 c0 221 8 274 49 313 50 48 137 47 168 -1
16 -23 19 -60 23 -268 l5 -240 88 0 88 0 -1 262 c0 168 -5 274 -12 295 -30 86
-100 128 -215 128 -79 0 -133 -21 -177 -69 l-30 -31 -35 34 c-20 19 -53 42
-73 51 -53 22 -162 19 -216 -5z"/>
<path d="M2142 1013 c3 -180 9 -269 18 -293 38 -100 95 -135 225 -135 80 0 95
3 137 28 26 15 52 36 58 47 16 30 26 24 40 -25 l13 -45 68 0 69 0 0 340 0 340
-89 0 -89 0 -4 -217 c-3 -200 -5 -221 -25 -259 -47 -89 -171 -101 -219 -21
-17 28 -19 58 -22 265 l-4 232 -90 0 -90 0 4 -257z"/>
<path d="M3590 930 l0 -340 90 0 90 0 0 340 0 340 -90 0 -90 0 0 -340z"/>
<path d="M8234 1193 c18 -43 79 -194 136 -336 101 -252 103 -260 91 -295 -8
-20 -24 -52 -38 -69 l-24 -33 -412 0 c-227 0 -1051 -7 -1832 -15 -781 -8
-1989 -19 -2685 -25 -696 -7 -1498 -15 -1783 -18 l-519 -7 -19 -24 c-26 -31
-24 -74 5 -107 l23 -28 1459 13 c802 6 1846 16 2319 21 473 5 1450 14 2170 20
l1310 12 52 33 c28 19 65 55 83 79 26 38 330 818 330 847 0 5 -42 9 -93 9
l-92 0 -72 -217 c-39 -120 -74 -231 -78 -248 -7 -28 -9 -24 -26 40 -14 57
-108 342 -134 408 -6 15 -21 17 -106 17 l-98 0 33 -77z"/>
</g>
</svg>
